#!OML:ASF H:\MichaelJackson\Top Level 1\Subject 1\Session 1\male.ASF
:FULLY-SPECIFIED
:DEGREES
627
root 3.63489 15.6199 30.0216 6.54462 8.22051 3.47755
lowerback -2.4407 -3.72939 1.15024
upperback 0.237077 -4.96756 -2.96474
thorax 1.24705 -2.46955 -3.85028
lowerneck -4.92148 -0.59958 4.38271
upperneck 2.15357 -1.12286 1.2507
head 1.48132 -0.49525 -0.378754
rclavicle -6.09772e-014 -4.65156e-014
rhumerus 0.670854 -22.5643 -3.18688
rradius 41.5272
rwrist -14.7391
rhand -39.9293 -54.6501
rfingers 7.12502
rthumb -12.8996 -444.231
lclavicle -6.09772e-014 -4.65156e-014
lhumerus -51.3895 -32.9049 111.339
lradius 53.9038
lwrist 32.1469
lhand 26.5667 30.8915
lfingers 7.12502
lthumb 50.5955 51.7959
rfemur -19.5927 -11.6697 -3.81273
rtibia 47.6261
rfoot -26.3093 -4.52863
rtoes -38.9848
lfemur -7.79778 -15.267 3.76273
ltibia 17.0968
lfoot -23.071 2.80828
ltoes -31.145
628
root 3.63013 15.6145 30.0015 6.36146 7.75817 3.54397
lowerback -2.22459 -3.61794 0.999357
upperback 0.276506 -4.81493 -2.92186
thorax 1.19404 -2.39436 -3.70433
lowerneck -4.9199 -0.656126 4.36817
upperneck 2.35345 -1.2048 1.32128
head 1.54433 -0.530624 -0.357561
rclavicle 1.08835e-014 5.1684e-015
rhumerus 1.29084 -23.5164 -3.64651
rradius 41.3079
rwrist -18.3028
rhand -41.4216 -54.7193
rfingers 7.12502
rthumb -14.3379 -444.204
lclavicle 1.08835e-014 5.1684e-015
lhumerus -51.2572 -33.5009 111.678
lradius 53.7741
lwrist 31.9158
lhand 26.9788 30.7561
lfingers 7.12502
lthumb 50.9714 51.4535
rfemur -19.6712 -11.6927 -3.90139
rtibia 47.5946
rfoot -26.5482 -4.34119
rtoes -39.0218
lfemur -7.33697 -15.7008 3.49784
ltibia 17.0103
lfoot -22.7757 4.02699
ltoes -31.5508
629
root 3.62727 15.6095 29.983 6.17318 7.36341 3.56545
lowerback -1.99121 -3.48995 0.917388
upperback 0.300118 -4.64295 -2.88875
thorax 1.10906 -2.30965 -3.60518
lowerneck -4.93494 -0.745044 4.3552
upperneck 2.56642 -1.33402 1.45815
head 1.61433 -0.587634 -0.317394
rclavicle 3.72721e-014 2.34566e-014
rhumerus 1.69393 -24.2073 -3.90441
rradius 40.9586
rwrist -20.7797
rhand -42.5538 -54.608
rfingers 7.12502
rthumb -15.4286 -444.012
lclavicle 3.72721e-014 2.34566e-014
lhumerus -51.144 -34.1147 112.02
lradius 53.6778
lwrist 31.4825
lhand 27.4702 30.534
lfingers 7.12502
lthumb 51.4189 50.9786
rfemur -19.7011 -11.7485 -3.94305
rtibia 47.5384
rfoot -26.7636 -4.17158
rtoes -39.0752
lfemur -6.91062 -16.0805 3.30235
ltibia 16.9183
lfoot -22.5313 5.04103
ltoes -31.9223
630
root 3.62645 15.6047 29.9661 5.99963 7.04252 3.53695
lowerback -1.76513 -3.36022 0.916882
upperback 0.307409 -4.47118 -2.85639
thorax 1.00437 -2.22497 -3.55298
lowerneck -4.9605 -0.844303 4.33877
upperneck 2.769 -1.47893 1.62753
head 1.68327 -0.651698 -0.266969
rclavicle 2.5842e-014 -9.14409e-015
rhumerus 1.90181 -24.596 -3.9675
rradius 40.4583
rwrist -21.6238
rhand -43.0346 -54.4406
rfingers 7.12502
rthumb -15.8916 -443.809
lclavicle 2.5842e-014 -9.14409e-015
lhumerus -51.0513 -34.6773 112.345
lradius 53.6075
lwrist 30.9069
lhand 27.9758 30.2315
lfingers 7.12502
lthumb 51.8782 50.4093
rfemur -19.7163 -11.8426 -3.93116
rtibia 47.4846
rfoot -26.9362 -4.01774
rtoes -39.1667
lfemur -6.54779 -16.366 3.19262
ltibia 16.828
lfoot -22.3468 5.82186
ltoes -32.2437
631
root 3.62763 15.6005 29.9504 5.85758 6.79384 3.46433
lowerback -1.57023 -3.23833 0.993803
upperback 0.300884 -4.31158 -2.81823
thorax 0.896645 -2.14618 -3.54074
lowerneck -4.99316 -0.936104 4.32567
upperneck 2.94272 -1.61385 1.78621
head 1.7447 -0.711323 -0.220118
rclavicle 2.24627e-014 -1.74931e-014
rhumerus 1.95675 -24.7231 -3.8713
rradius 39.8445
rwrist -20.8552
rhand -42.8312 -54.2438
rfingers 7.12502
rthumb -15.6958 -443.627
lclavicle 2.24627e-014 -1.74931e-014
lhumerus -50.9844 -35.1382 112.648
lradius 53.5546
lwrist 30.2716
lhand 28.418 29.8695
lfingers 7.12502
lthumb 52.2792 49.8078
rfemur -19.7467 -11.9647 -3.87333
rtibia 47.4506
rfoot -27.0591 -3.84282
rtoes -39.244
lfemur -6.26684 -16.5325 3.16755
ltibia 16.7431
lfoot -22.2244 6.37002
ltoes -32.5219
632
root 3.63068 15.597 29.9356 5.75908 6.60726 3.36678
lowerback -1.41746 -3.13482 1.12135
upperback 0.281967 -4.17723 -2.7697
thorax 0.795386 -2.0799 -3.54955
lowerneck -5.03078 -1.00302 4.31319
upperneck 3.07665 -1.71352 1.90652
head 1.79466 -0.754957 -0.184244
rclavicle -4.68635e-014 -3.45885e-014
rhumerus 1.92842 -24.679 -3.67736
rradius 39.1926
rwrist -18.9352
rhand -42.1299 -54.0206
rfingers 7.12502
rthumb -15.0203 -443.456
lclavicle -4.68635e-014 -3.45885e-014
lhumerus -50.9476 -35.4502 112.918
lradius 53.5197
lwrist 29.668
lhand 28.7155 29.4993
lfingers 7.12502
lthumb 52.5484 49.2734
rfemur -19.8121 -12.1037 -3.78956
rtibia 47.4438
rfoot -27.1352 -3.64466
rtoes -39.297
lfemur -6.07584 -16.5849 3.20711
ltibia 16.6661
lfoot -22.1587 6.7138
ltoes -32.7485
633
root 3.63527 15.594 29.9211 5.70665 6.46968 3.25965
lowerback -1.31618 -3.05415 1.27495
upperback 0.257973 -4.07335 -2.71036
thorax 0.714912 -2.02866 -3.56579
lowerneck -5.06948 -1.03765 4.30819
upperneck 3.15824 -1.7667 1.96682
head 1.82804 -0.777877 -0.166841
rclavicle -2.18663e-015 2.0276e-014
rhumerus 1.87322 -24.568 -3.44288
rradius 38.5842
rwrist -16.5846
rhand -41.256 -53.7011
rfingers 7.12502
rthumb -14.1783 -443.197
lclavicle -2.18663e-015 2.0276e-014
lhumerus -50.9406 -35.61 113.153
lradius 53.4946
lwrist 29.192
lhand 28.7702 29.1349
lfingers 7.12502
lthumb 52.5979 48.8785
rfemur -19.9167 -12.2423 -3.69499
rtibia 47.4593
rfoot -27.1733 -3.43112
rtoes -39.3146
lfemur -5.96697 -16.5473 3.28988
ltibia 16.5937
lfoot -22.129 6.90988
ltoes -32.946
634
root 3.64115 15.5915 29.9068 5.70173 6.37131 3.16377
lowerback -1.27238 -2.99982 1.42779
upperback 0.234388 -4.00426 -2.64508
thorax 0.665303 -1.9945 -3.57973
lowerneck -5.1087 -1.03613 4.31647
upperneck 3.18444 -1.76799 1.96099
head 1.84351 -0.777657 -0.170611
rclavicle -1.68222e-014 -6.36111e-015
rhumerus 1.84276 -24.4795 -3.22142
rradius 38.0901
rwrist -14.5015
rhand -40.4908 -53.3364
rfingers 7.12502
rthumb -13.4409 -442.883
lclavicle -1.68222e-014 -6.36111e-015
lhumerus -50.9587 -35.6228 113.341
lradius 53.4804
lwrist 28.8767
lhand 28.5932 28.8385
lfingers 7.12502
lthumb 52.4378 48.6805
rfemur -20.0555 -12.3722 -3.61004
rtibia 47.4848
rfoot -27.1864 -3.22355
rtoes -39.3017
lfemur -5.93259 -16.4616 3.38679
ltibia 16.5237
lfoot -22.1164 7.01562
ltoes -33.118
